<svg xmlns="http://www.w3.org/2000/svg" xmlns:xlink="http://www.w3.org/1999/xlink" width="55.647" height="13.717" viewBox="0 0 55.647 13.717"><defs><linearGradient id="a" x1="2.924" y1="1.852" x2="1.87" y2="0.369" gradientUnits="objectBoundingBox"><stop offset="0" stop-color="#24553a"/><stop offset="1" stop-color="#49be55"/></linearGradient></defs><g transform="translate(-257.553 -49)"><path d="M-18.27-15.768a20.329,20.329,0,0,1,.1-2.095,8.745,8.745,0,0,1,.365-1.756,4.049,4.049,0,0,1,.73-1.391,3.21,3.21,0,0,1,1.2-.869,4.4,4.4,0,0,1,1.765-.322,23.644,23.644,0,0,1,2.512.113,18.4,18.4,0,0,1,2.373.443v1.895q-.017,0-.287-.035t-.713-.078q-.443-.043-.965-.087t-1.156-.07q-.635-.026-1.191-.026a3.28,3.28,0,0,0-.843.1,1.464,1.464,0,0,0-.608.322,1.88,1.88,0,0,0-.417.548,3.086,3.086,0,0,0-.261.834,8.863,8.863,0,0,0-.13,1.1q-.035.582-.035,1.417a8.82,8.82,0,0,0,.417,3.364,1.762,1.762,0,0,0,1.756.843,3.084,3.084,0,0,0,.678-.078,3.43,3.43,0,0,0,.608-.191,5.259,5.259,0,0,0,.478-.235,2.227,2.227,0,0,0,.322-.209l.1-.087V-14.6h-1.773V-16.15a8.417,8.417,0,0,1,3.025-.417q.556,0,1.182.035v7.2h-1.738l-.661-.852a2.622,2.622,0,0,1-.348.3,3.321,3.321,0,0,1-.417.243,3.038,3.038,0,0,1-.513.2,4.711,4.711,0,0,1-.626.13,7.588,7.588,0,0,1-.791.07,4.178,4.178,0,0,1-1.808-.3,3.056,3.056,0,0,1-1.208-.887,4.188,4.188,0,0,1-.7-1.452,9.281,9.281,0,0,1-.339-1.791Q-18.27-14.568-18.27-15.768Zm11.074.156q0-.887.061-1.634a10.033,10.033,0,0,1,.191-1.339,9.659,9.659,0,0,1,.3-1.069,3.5,3.5,0,0,1,.409-.834,5.242,5.242,0,0,1,.5-.626,2.237,2.237,0,0,1,.6-.452,5.043,5.043,0,0,1,.669-.3,3.962,3.962,0,0,1,.739-.174q.417-.061.791-.087t.861-.026q.626,0,1.087.035a6.976,6.976,0,0,1,.974.148,3.116,3.116,0,0,1,.878.322,4.771,4.771,0,0,1,.739.53,2.535,2.535,0,0,1,.617.817,7.218,7.218,0,0,1,.435,1.147A8.92,8.92,0,0,1,2.931-17.6a18.863,18.863,0,0,1,.1,1.991A15.34,15.34,0,0,1,2.9-13.5a10.2,10.2,0,0,1-.339,1.6,3.789,3.789,0,0,1-.565,1.147,3.618,3.618,0,0,1-.748.765A3.061,3.061,0,0,1,.3-9.535a5.809,5.809,0,0,1-1.1.217q-.548.052-1.278.052-.643,0-1.121-.035A7.823,7.823,0,0,1-4.2-9.439a3.118,3.118,0,0,1-.878-.3,4.071,4.071,0,0,1-.73-.522,2.658,2.658,0,0,1-.608-.8,6.291,6.291,0,0,1-.426-1.113,8.577,8.577,0,0,1-.269-1.5Q-7.2-14.533-7.2-15.611Zm2.434,0q0,1.078.07,1.765a5.373,5.373,0,0,0,.235,1.173,1.453,1.453,0,0,0,.5.73,2,2,0,0,0,.756.339,5.3,5.3,0,0,0,1.121.1,3.3,3.3,0,0,0,1.617-.313,1.932,1.932,0,0,0,.8-1.191,9.732,9.732,0,0,0,.261-2.6q0-.991-.061-1.7a5.333,5.333,0,0,0-.217-1.182,3.231,3.231,0,0,0-.339-.756,1.165,1.165,0,0,0-.513-.426,2.372,2.372,0,0,0-.669-.191,7.164,7.164,0,0,0-.878-.043q-.452,0-.739.026a3.583,3.583,0,0,0-.608.113,1.1,1.1,0,0,0-.5.269A2.441,2.441,0,0,0-4.3-19a2.423,2.423,0,0,0-.269.774,10.74,10.74,0,0,0-.139,1.1Q-4.762-16.48-4.762-15.611Z" transform="translate(275.823 71.78)" fill="#9d60eb"/><path d="M.6-17.853v-.974l1.721-.313.313-2.573h.974v2.573H6.3v1.286H3.608v4.659a3.114,3.114,0,0,0,.243,1.469,1.139,1.139,0,0,0,.748.53q1.426.365,1.547.365v.921H4.616q-2.295,0-2.295-3.286v-4.659Zm7.354,3.3a11.657,11.657,0,0,1,.209-2.46,2.543,2.543,0,0,1,.756-1.408,2.723,2.723,0,0,1,1.217-.626,9.029,9.029,0,0,1,1.851-.148,9.928,9.928,0,0,1,1.5.087,2.976,2.976,0,0,1,1.06.4,1.744,1.744,0,0,1,.748.991,5.808,5.808,0,0,1,.226,1.791q0,2.121-2.382,2.121H9.24a4.324,4.324,0,0,0,.365,2.164A1.555,1.555,0,0,0,11-11.09h.73a27.24,27.24,0,0,0,3.616-.174v.974A16.287,16.287,0,0,1,11-9.8a2.627,2.627,0,0,1-2.4-1.008A7.555,7.555,0,0,1,7.954-14.549Zm1.286-.522h3.894q1.1,0,1.1-.852,0-1.339-.391-1.66A3.308,3.308,0,0,0,12-17.9q-.608,0-.9.017a5.1,5.1,0,0,0-.678.1,1.038,1.038,0,0,0-.556.252,2.663,2.663,0,0,0-.348.487,2.005,2.005,0,0,0-.235.8A11.343,11.343,0,0,0,9.24-15.071Zm8.1.556a11.3,11.3,0,0,1,.217-2.425,3.158,3.158,0,0,1,.652-1.443,2.286,2.286,0,0,1,.939-.652,3.816,3.816,0,0,1,1.234-.174,22.675,22.675,0,0,1,3.964.452v.939q-2.417-.1-3.964-.1a2.407,2.407,0,0,0-.73.087,1.248,1.248,0,0,0-.53.409,2.175,2.175,0,0,0-.382,1.052,13.15,13.15,0,0,0-.113,1.93,6.093,6.093,0,0,0,.391,2.651,1.428,1.428,0,0,0,1.365.7q.713,0,1.73-.043t1.7-.1l.661-.052v.974a16.156,16.156,0,0,1-4.085.5,3.673,3.673,0,0,1-1.208-.174,2.363,2.363,0,0,1-.939-.652,3.168,3.168,0,0,1-.669-1.452A11,11,0,0,1,17.342-14.515ZM26.469-9.89V-23.52h1.286v5.476a3.9,3.9,0,0,0,.382-.217q.33-.2.409-.235t.374-.2a2.393,2.393,0,0,1,.417-.2q.122-.035.4-.139a2.939,2.939,0,0,1,.461-.139q.183-.035.443-.07a3.942,3.942,0,0,1,.522-.035,2.636,2.636,0,0,1,2.086.869,3.051,3.051,0,0,1,.765,2.086V-9.89H32.727v-6.432a1.679,1.679,0,0,0-.426-1.252,1.557,1.557,0,0,0-1.139-.417,5.451,5.451,0,0,0-1.252.139,6.349,6.349,0,0,0-.947.287q-.356.148-1.208.565v7.11Z" transform="translate(279.186 72.52)" fill="url(#a)"/></g></svg>