<svg id="Component_1_1" data-name="Component 1 – 1" xmlns="http://www.w3.org/2000/svg" width="1506.251" height="390" viewBox="0 0 1506.251 390">
  <path id="Path_9679" data-name="Path 9679" d="M290.564,251.27H220.086a4.581,4.581,0,0,1-4.586-4.586v-70.5a4.581,4.581,0,0,1,4.586-4.586h70.5a4.581,4.581,0,0,1,4.586,4.586v70.5A4.612,4.612,0,0,1,290.564,251.27Z" transform="translate(106.528 47.316)" fill="blue" opacity="0.025"/>
  <path id="Path_9694" data-name="Path 9694" d="M287.027,247.516H219.87a4.366,4.366,0,0,1-4.37-4.37V175.97a4.366,4.366,0,0,1,4.37-4.37h67.176a4.366,4.366,0,0,1,4.37,4.37v67.176A4.394,4.394,0,0,1,287.027,247.516Z" transform="translate(888.243 -31.941)" fill="blue" opacity="0.025"/>
  <path id="Path_9692" data-name="Path 9692" d="M311.736,273.742H221.38a5.874,5.874,0,0,1-5.88-5.88V177.48a5.874,5.874,0,0,1,5.88-5.88h90.382a5.874,5.874,0,0,1,5.88,5.88v90.382A5.913,5.913,0,0,1,311.736,273.742Z" transform="translate(1152.29 -171.6)" fill="blue" opacity="0.025"/>
  <path id="Path_9680" data-name="Path 9680" d="M578.169,513.508H536.317a2.715,2.715,0,0,1-2.717-2.717V468.917a2.715,2.715,0,0,1,2.717-2.717h41.852a2.715,2.715,0,0,1,2.716,2.717v41.852A2.733,2.733,0,0,1,578.169,513.508Z" transform="translate(-151.758 -194.059)" fill="blue" opacity="0.025"/>
  <path id="Path_9693" data-name="Path 9693" d="M572.622,507.619H535.978a2.377,2.377,0,0,1-2.378-2.378V468.578a2.377,2.377,0,0,1,2.378-2.378h36.643A2.377,2.377,0,0,1,575,468.578v36.643A2.393,2.393,0,0,1,572.622,507.619Z" transform="translate(631.654 -270.01)" fill="blue" opacity="0.025"/>
  <path id="Path_9691" data-name="Path 9691" d="M586.1,521.928H536.8a3.2,3.2,0,0,1-3.2-3.2V469.4a3.2,3.2,0,0,1,3.2-3.2h49.3a3.2,3.2,0,0,1,3.2,3.2v49.3A3.22,3.22,0,0,1,586.1,521.928Z" transform="translate(916.949 -390.39)" fill="blue" opacity="0.025"/>
  <path id="Path_9681" data-name="Path 9681" d="M1807.326,351.073h-57.18a6.24,6.24,0,0,1-6.247-6.247V287.647a6.24,6.24,0,0,1,6.247-6.247h57.18a6.24,6.24,0,0,1,6.247,6.247v57.179A6.223,6.223,0,0,1,1807.326,351.073Z" transform="translate(-830.212 2.291)" fill="blue" opacity="0.025"/>
  <path id="Path_11692" data-name="Path 11692" d="M1792.079,334.324h-43.434a4.74,4.74,0,0,1-4.745-4.745V286.145a4.74,4.74,0,0,1,4.745-4.745h43.434a4.74,4.74,0,0,1,4.745,4.745v43.434A4.727,4.727,0,0,1,1792.079,334.324Z" transform="translate(-787.212 37.291)" fill="blue" opacity="0.025"/>
  <path id="Path_9690" data-name="Path 9690" d="M1808.2,352.033h-57.967a6.326,6.326,0,0,1-6.333-6.333V287.733a6.326,6.326,0,0,1,6.333-6.333H1808.2a6.326,6.326,0,0,1,6.333,6.333V345.7A6.309,6.309,0,0,1,1808.2,352.033Z" transform="translate(-1743.9 10.964)" fill="blue" opacity="0.025"/>
  <path id="Path_9689" data-name="Path 9689" d="M2011.025,497.379H1885.656c-4.013,0-7.256-3.746-7.256-8.381V451.781c0-4.635,3.243-8.381,7.256-8.381h125.368c4.013,0,7.257,3.746,7.257,8.381V489C2018.281,493.606,2015.015,497.379,2011.025,497.379Z" transform="translate(-1842.154 -107.379)" fill="blue" opacity="0.025"/>
  <g id="Group_1572" data-name="Group 1572" transform="translate(36.346 32.012)" opacity="0.025">
    <path id="Path_9684" data-name="Path 9684" d="M233.145,1369.99a25.645,25.645,0,1,1,25.645-25.645A25.666,25.666,0,0,1,233.145,1369.99Zm0-38.826a13.181,13.181,0,1,0,13.181,13.181A13.205,13.205,0,0,0,233.145,1331.164Z" transform="translate(-207.5 -1318.7)" fill="blue"/>
  </g>
  <g id="Group_1571" data-name="Group 1571" transform="translate(558.346 319.615)" opacity="0.025">
    <path id="Path_9684-2" data-name="Path 9684" d="M229,1361.705a21.5,21.5,0,1,1,21.5-21.5A21.521,21.521,0,0,1,229,1361.705Zm0-32.555a11.052,11.052,0,1,0,11.052,11.052A11.072,11.072,0,0,0,229,1329.151Z" transform="translate(-207.5 -1318.7)" fill="blue"/>
  </g>
  <g id="Ellipse_344" data-name="Ellipse 344" transform="translate(1139.128 307.615)" fill="none" stroke="blue" stroke-miterlimit="10" stroke-width="10" opacity="0.025">
    <circle cx="17" cy="17" r="17" stroke="none"/>
    <circle cx="17" cy="17" r="12" fill="none"/>
  </g>
  <g id="Ellipse_352" data-name="Ellipse 352" transform="translate(1374.128 213.093)" fill="none" stroke="blue" stroke-miterlimit="10" stroke-width="10" opacity="0.025">
    <circle cx="17" cy="17" r="17" stroke="none"/>
    <circle cx="17" cy="17" r="12" fill="none"/>
  </g>
  <g id="Ellipse_345" data-name="Ellipse 345" transform="translate(513.128 130.942)" fill="none" stroke="blue" stroke-miterlimit="10" stroke-width="10" opacity="0.025">
    <circle cx="17" cy="17" r="17" stroke="none"/>
    <circle cx="17" cy="17" r="12" fill="none"/>
  </g>
  <g id="Ellipse_67" data-name="Ellipse 67" transform="translate(322.128 75.526)" fill="none" stroke="blue" stroke-miterlimit="10" stroke-width="8" opacity="0.025">
    <circle cx="14.5" cy="14.5" r="14.5" stroke="none"/>
    <circle cx="14.5" cy="14.5" r="10.5" fill="none"/>
  </g>
  <g id="Ellipse_65" data-name="Ellipse 65" transform="translate(931.128 104.218)" fill="none" stroke="blue" stroke-miterlimit="10" stroke-width="10" opacity="0.025">
    <circle cx="17" cy="17" r="17" stroke="none"/>
    <circle cx="17" cy="17" r="12" fill="none"/>
  </g>
  <g id="Ellipse_63" data-name="Ellipse 63" transform="translate(113.128 203.195)" fill="none" stroke="blue" stroke-miterlimit="10" stroke-width="10" opacity="0.025">
    <circle cx="17" cy="17" r="17" stroke="none"/>
    <circle cx="17" cy="17" r="12" fill="none"/>
  </g>
  <g id="Ellipse_64" data-name="Ellipse 64" transform="translate(1450.128 340.615)" fill="none" stroke="blue" stroke-miterlimit="10" stroke-width="10" opacity="0.025">
    <circle cx="17" cy="17" r="17" stroke="none"/>
    <circle cx="17" cy="17" r="12" fill="none"/>
  </g>
</svg>
